<mxfile host="app.diagrams.net" modified="2022-07-02T08:41:18.792Z" agent="5.0 (Macintosh; Intel Mac OS X 10_15_7) AppleWebKit/537.36 (KHTML, like Gecko) Chrome/101.0.4951.64 Safari/537.36" etag="sj2XNZAQR_pTLCc6mHK3" version="18.0.8" type="github">
  <diagram id="aRMNgUyygpuuY20Jk_s2" name="Page-1">
    <mxGraphModel dx="1236" dy="809" grid="1" gridSize="10" guides="1" tooltips="1" connect="1" arrows="1" fold="1" page="1" pageScale="1" pageWidth="1920" pageHeight="1200" math="0" shadow="0">
      <root>
        <mxCell id="0" />
        <mxCell id="1" parent="0" />
        <mxCell id="7jCYaglU3Yi6P3khdZMk-5" style="edgeStyle=orthogonalEdgeStyle;rounded=0;orthogonalLoop=1;jettySize=auto;html=1;exitX=1;exitY=0.5;exitDx=0;exitDy=0;entryX=0;entryY=0.5;entryDx=0;entryDy=0;" edge="1" parent="1" source="7jCYaglU3Yi6P3khdZMk-1" target="7jCYaglU3Yi6P3khdZMk-2">
          <mxGeometry relative="1" as="geometry" />
        </mxCell>
        <mxCell id="7jCYaglU3Yi6P3khdZMk-6" value="" style="edgeStyle=orthogonalEdgeStyle;rounded=0;orthogonalLoop=1;jettySize=auto;html=1;entryX=0;entryY=0.5;entryDx=0;entryDy=0;" edge="1" parent="1" source="7jCYaglU3Yi6P3khdZMk-1" target="7jCYaglU3Yi6P3khdZMk-4">
          <mxGeometry relative="1" as="geometry" />
        </mxCell>
        <mxCell id="7jCYaglU3Yi6P3khdZMk-8" value="" style="edgeStyle=orthogonalEdgeStyle;rounded=0;orthogonalLoop=1;jettySize=auto;html=1;entryX=0;entryY=0.5;entryDx=0;entryDy=0;" edge="1" parent="1" source="7jCYaglU3Yi6P3khdZMk-1" target="7jCYaglU3Yi6P3khdZMk-3">
          <mxGeometry relative="1" as="geometry">
            <mxPoint x="285" y="400" as="targetPoint" />
          </mxGeometry>
        </mxCell>
        <mxCell id="7jCYaglU3Yi6P3khdZMk-1" value="不同平台的鉴权" style="rounded=1;whiteSpace=wrap;html=1;" vertex="1" parent="1">
          <mxGeometry x="220" y="260" width="130" height="60" as="geometry" />
        </mxCell>
        <mxCell id="7jCYaglU3Yi6P3khdZMk-10" style="edgeStyle=orthogonalEdgeStyle;rounded=0;orthogonalLoop=1;jettySize=auto;html=1;exitX=1;exitY=0.5;exitDx=0;exitDy=0;" edge="1" parent="1" source="7jCYaglU3Yi6P3khdZMk-2" target="7jCYaglU3Yi6P3khdZMk-9">
          <mxGeometry relative="1" as="geometry" />
        </mxCell>
        <mxCell id="7jCYaglU3Yi6P3khdZMk-2" value="TAPD" style="rounded=1;whiteSpace=wrap;html=1;" vertex="1" parent="1">
          <mxGeometry x="410" y="140" width="120" height="60" as="geometry" />
        </mxCell>
        <mxCell id="7jCYaglU3Yi6P3khdZMk-19" style="edgeStyle=orthogonalEdgeStyle;rounded=0;orthogonalLoop=1;jettySize=auto;html=1;exitX=1;exitY=0.5;exitDx=0;exitDy=0;" edge="1" parent="1" source="7jCYaglU3Yi6P3khdZMk-3" target="7jCYaglU3Yi6P3khdZMk-14">
          <mxGeometry relative="1" as="geometry" />
        </mxCell>
        <mxCell id="7jCYaglU3Yi6P3khdZMk-21" value="仍跳转回" style="edgeLabel;html=1;align=center;verticalAlign=middle;resizable=0;points=[];" vertex="1" connectable="0" parent="7jCYaglU3Yi6P3khdZMk-19">
          <mxGeometry x="-0.0667" y="-2" relative="1" as="geometry">
            <mxPoint as="offset" />
          </mxGeometry>
        </mxCell>
        <mxCell id="7jCYaglU3Yi6P3khdZMk-3" value="蓝盾" style="rounded=1;whiteSpace=wrap;html=1;" vertex="1" parent="1">
          <mxGeometry x="410" y="380" width="120" height="60" as="geometry" />
        </mxCell>
        <mxCell id="7jCYaglU3Yi6P3khdZMk-12" style="edgeStyle=orthogonalEdgeStyle;rounded=0;orthogonalLoop=1;jettySize=auto;html=1;exitX=1;exitY=0.5;exitDx=0;exitDy=0;" edge="1" parent="1" source="7jCYaglU3Yi6P3khdZMk-4" target="7jCYaglU3Yi6P3khdZMk-11">
          <mxGeometry relative="1" as="geometry" />
        </mxCell>
        <mxCell id="7jCYaglU3Yi6P3khdZMk-4" value="工蜂" style="rounded=1;whiteSpace=wrap;html=1;" vertex="1" parent="1">
          <mxGeometry x="410" y="260" width="120" height="60" as="geometry" />
        </mxCell>
        <mxCell id="7jCYaglU3Yi6P3khdZMk-15" style="edgeStyle=orthogonalEdgeStyle;rounded=0;orthogonalLoop=1;jettySize=auto;html=1;exitX=1;exitY=0.5;exitDx=0;exitDy=0;entryX=0;entryY=0.5;entryDx=0;entryDy=0;" edge="1" parent="1" source="7jCYaglU3Yi6P3khdZMk-9" target="7jCYaglU3Yi6P3khdZMk-13">
          <mxGeometry relative="1" as="geometry">
            <mxPoint x="780" y="170" as="targetPoint" />
          </mxGeometry>
        </mxCell>
        <mxCell id="7jCYaglU3Yi6P3khdZMk-17" value="重定向" style="edgeLabel;html=1;align=center;verticalAlign=middle;resizable=0;points=[];" vertex="1" connectable="0" parent="7jCYaglU3Yi6P3khdZMk-15">
          <mxGeometry x="-0.3733" relative="1" as="geometry">
            <mxPoint as="offset" />
          </mxGeometry>
        </mxCell>
        <mxCell id="7jCYaglU3Yi6P3khdZMk-9" value="TAPD 平台授权页" style="rounded=1;whiteSpace=wrap;html=1;" vertex="1" parent="1">
          <mxGeometry x="620" y="140" width="120" height="60" as="geometry" />
        </mxCell>
        <mxCell id="7jCYaglU3Yi6P3khdZMk-16" style="edgeStyle=orthogonalEdgeStyle;rounded=0;orthogonalLoop=1;jettySize=auto;html=1;entryX=0;entryY=0.5;entryDx=0;entryDy=0;" edge="1" parent="1" source="7jCYaglU3Yi6P3khdZMk-11" target="7jCYaglU3Yi6P3khdZMk-13">
          <mxGeometry relative="1" as="geometry" />
        </mxCell>
        <mxCell id="7jCYaglU3Yi6P3khdZMk-18" value="重定向" style="edgeLabel;html=1;align=center;verticalAlign=middle;resizable=0;points=[];" vertex="1" connectable="0" parent="7jCYaglU3Yi6P3khdZMk-16">
          <mxGeometry x="-0.4353" relative="1" as="geometry">
            <mxPoint as="offset" />
          </mxGeometry>
        </mxCell>
        <mxCell id="7jCYaglU3Yi6P3khdZMk-11" value="&lt;span style=&quot;&quot;&gt;工蜂平台授权页&lt;/span&gt;" style="rounded=1;whiteSpace=wrap;html=1;" vertex="1" parent="1">
          <mxGeometry x="620" y="260" width="120" height="60" as="geometry" />
        </mxCell>
        <mxCell id="7jCYaglU3Yi6P3khdZMk-13" value="Provisioner 平台" style="rounded=1;whiteSpace=wrap;html=1;" vertex="1" parent="1">
          <mxGeometry x="860" y="190" width="120" height="60" as="geometry" />
        </mxCell>
        <mxCell id="7jCYaglU3Yi6P3khdZMk-14" value="Provisioner 平台" style="rounded=1;whiteSpace=wrap;html=1;" vertex="1" parent="1">
          <mxGeometry x="620" y="380" width="120" height="60" as="geometry" />
        </mxCell>
      </root>
    </mxGraphModel>
  </diagram>
</mxfile>
